<?xml version="1.0" encoding="UTF-8" standalone="no"?>
<!-- Created with Inkscape (http://www.inkscape.org/) -->

<svg
   width="40.643585mm"
   height="40.643581mm"
   viewBox="0 0 40.643585 40.643581"
   version="1.1"
   id="svg5"
   xml:space="preserve"
   inkscape:version="1.2.2 (b0a8486541, 2022-12-01)"
   sodipodi:docname="JKL-Logo-1.svg"
   xmlns:inkscape="http://www.inkscape.org/namespaces/inkscape"
   xmlns:sodipodi="http://sodipodi.sourceforge.net/DTD/sodipodi-0.dtd"
   xmlns="http://www.w3.org/2000/svg"
   xmlns:svg="http://www.w3.org/2000/svg"><sodipodi:namedview
     id="namedview7"
     pagecolor="#ffffff"
     bordercolor="#666666"
     borderopacity="1.0"
     inkscape:showpageshadow="2"
     inkscape:pageopacity="0.0"
     inkscape:pagecheckerboard="0"
     inkscape:deskcolor="#d1d1d1"
     inkscape:document-units="mm"
     showgrid="false"
     inkscape:zoom="1.3732434"
     inkscape:cx="1020.2124"
     inkscape:cy="597.12646"
     inkscape:window-width="1368"
     inkscape:window-height="706"
     inkscape:window-x="0"
     inkscape:window-y="0"
     inkscape:window-maximized="1"
     inkscape:current-layer="layer1" /><defs
     id="defs2" /><g
     inkscape:label="Layer 1"
     inkscape:groupmode="layer"
     id="layer1"
     transform="translate(163.62938,-180.19523)"><g
       id="g1010"
       inkscape:export-filename="icon-jkl.svg"
       inkscape:export-xdpi="118.18"
       inkscape:export-ydpi="118.18"><rect
         style="opacity:0;fill:#ffffff;stroke-width:0.264999;stroke-linecap:square;stroke-linejoin:round;stroke-opacity:0.00961268;paint-order:markers stroke fill;stop-color:#000000"
         id="rect452"
         width="40.643578"
         height="40.643578"
         x="-163.62938"
         y="180.19524" /><path
         id="path367"
         style="fill:#059cfb;fill-opacity:1;stroke-width:0.387592;stroke-linecap:square;stroke-linejoin:round;stroke-opacity:0.00961268;paint-order:markers stroke fill;stop-color:#000000"
         d="m -154.65289,181.43623 c -4.28601,0 -7.7355,3.44947 -7.7355,7.73549 v 22.6906 c 0,4.28601 3.44949,7.73549 7.7355,7.73549 h 22.6906 c 4.28601,0 7.7355,-3.44948 7.7355,-7.73549 v -22.6906 c 0,-4.28602 -3.44949,-7.73549 -7.7355,-7.73549 z m 5.53137,8.42568 h 10.72962 c 1.18723,0 2.28285,0.37629 3.17685,1.0149 l -9.90728,9.90729 h -3.99919 c -3.02526,0 -5.46108,-2.43583 -5.46108,-5.46109 0,-3.02526 2.43582,-5.4611 5.46108,-5.4611 z m 15.17721,2.28565 c 0.6378,0.89368 1.0135,1.98905 1.0135,3.17545 v 10.72961 c 0,3.02526 -2.43583,5.4597 -5.46109,5.4597 -3.02526,0 -5.46109,-2.43444 -5.46109,-5.4597 v -3.99778 z m -15.53988,9.89042 a 4.3765649,4.3765649 0 0 1 4.3759,4.3773 4.3765649,4.3765649 0 0 1 -4.3759,4.37591 4.3765649,4.3765649 0 0 1 -4.3773,-4.37591 4.3765649,4.3765649 0 0 1 4.3773,-4.3773 z" /></g></g></svg>
